<svg width="45" height="45" viewBox="0 0 45 45" fill="none" xmlns="http://www.w3.org/2000/svg">
<rect width="45" height="45" fill="#023047"/>
<path d="M25.0526 15C25.6071 14.9999 26.1517 15.1458 26.6319 15.4231C27.1121 15.7003 27.5108 16.099 27.788 16.5792C28.0651 17.0594 28.211 17.6041 28.2109 18.1585C28.2108 18.7129 28.0647 19.2576 27.7874 19.7376L31.3684 19.7368V21.3158H29.7895V29.2105C29.7895 29.4199 29.7063 29.6207 29.5582 29.7688C29.4102 29.9168 29.2094 30 29 30H16.3684C16.159 30 15.9582 29.9168 15.8102 29.7688C15.6621 29.6207 15.5789 29.4199 15.5789 29.2105V21.3158H14V19.7368L17.5811 19.7376C17.1894 19.0594 17.0637 18.2598 17.2285 17.4941C17.3932 16.7284 17.8366 16.0512 18.4726 15.5941C19.1086 15.137 19.8918 14.9325 20.6701 15.0204C21.4483 15.1083 22.1662 15.4823 22.6842 16.0697C22.9799 15.7329 23.3443 15.4632 23.7527 15.2788C24.1612 15.0943 24.6044 14.9992 25.0526 15ZM23.4737 21.3158H21.8947V29.2105H23.4737V21.3158ZM20.3158 16.579C19.9061 16.5771 19.5117 16.7346 19.2159 17.0182C18.9202 17.3018 18.7463 17.6892 18.7309 18.0986C18.7155 18.5081 18.8599 18.9075 19.1335 19.2124C19.4072 19.5174 19.7887 19.704 20.1974 19.7329L20.3158 19.7368H21.8947V18.1579C21.8948 17.7806 21.7596 17.4157 21.5139 17.1294C21.2681 16.8431 20.928 16.6543 20.555 16.5971L20.4334 16.5829L20.3158 16.579ZM25.0526 16.579C24.6543 16.5788 24.2706 16.7293 23.9785 17.0001C23.6864 17.271 23.5075 17.6422 23.4776 18.0395L23.4737 18.1579V19.7368H25.0526C25.451 19.737 25.8347 19.5865 26.1267 19.3157C26.4188 19.0448 26.5978 18.6735 26.6276 18.2763L26.6316 18.1579C26.6316 17.7391 26.4652 17.3375 26.1691 17.0414C25.873 16.7453 25.4714 16.579 25.0526 16.579Z" fill="white"/>
</svg>
