<svg width="104" height="23" viewBox="0 0 104 23" fill="none" xmlns="http://www.w3.org/2000/svg">
<path d="M94.942 14.3274V21.5349H85.6396C85.6394 20.399 85.8991 19.2781 86.399 18.258C86.8989 17.238 87.6256 16.346 88.5236 15.6503C89.4215 14.9545 90.4668 14.4736 91.5793 14.2443C92.6919 14.015 93.8421 14.0435 94.942 14.3274ZM93.0815 13.1628C89.9978 13.1628 87.5001 10.6651 87.5001 7.5814C87.5001 4.49767 89.9978 2 93.0815 2C96.1652 2 98.6629 4.49767 98.6629 7.5814C98.6629 10.6651 96.1652 13.1628 93.0815 13.1628ZM98.6629 16.8837V13.6279L103.314 17.814L98.6629 22V18.7442H95.8722V16.8837H98.6629Z" fill="#333333"/>
<path d="M54.8207 3.65429C57.3622 1.37244 61.2897 1.44818 63.7382 3.90098C66.1856 6.35486 66.27 10.2629 63.9935 12.812L54.8185 22L45.6457 12.812C43.3692 10.2629 43.4547 6.34837 45.901 3.90098C48.3516 1.45142 52.2716 1.3692 54.8207 3.65429Z" fill="#333333"/>
<path d="M3.10349 7.3845L0 4.3322L1.35413 3L4.45666 6.05324H19.043C19.1921 6.05323 19.3392 6.08752 19.4725 6.15338C19.6058 6.21924 19.7216 6.31485 19.8107 6.43256C19.8997 6.55028 19.9596 6.68685 19.9855 6.83137C20.0114 6.97589 20.0025 7.12436 19.9597 7.26493L17.663 14.7968C17.6039 14.9909 17.4828 15.161 17.3176 15.2819C17.1525 15.4028 16.9521 15.4681 16.7462 15.4681H5.01745V17.3511H15.5442V19.2341H4.06047C3.80666 19.2341 3.56325 19.1349 3.38378 18.9583C3.20431 18.7817 3.10349 18.5423 3.10349 18.2926V7.3845ZM4.53896 23C4.15825 23 3.79313 22.8512 3.52393 22.5864C3.25472 22.3215 3.10349 21.9623 3.10349 21.5878C3.10349 21.2132 3.25472 20.854 3.52393 20.5892C3.79313 20.3243 4.15825 20.1755 4.53896 20.1755C4.91967 20.1755 5.28479 20.3243 5.55399 20.5892C5.82319 20.854 5.97443 21.2132 5.97443 21.5878C5.97443 21.9623 5.82319 22.3215 5.55399 22.5864C5.28479 22.8512 4.91967 23 4.53896 23ZM16.0227 23C15.642 23 15.2769 22.8512 15.0077 22.5864C14.7385 22.3215 14.5873 21.9623 14.5873 21.5878C14.5873 21.2132 14.7385 20.854 15.0077 20.5892C15.2769 20.3243 15.642 20.1755 16.0227 20.1755C16.4034 20.1755 16.7685 20.3243 17.0378 20.5892C17.307 20.854 17.4582 21.2132 17.4582 21.5878C17.4582 21.9623 17.307 22.3215 17.0378 22.5864C16.7685 22.8512 16.4034 23 16.0227 23Z" fill="#023047"/>
<circle cx="17.5" cy="6.5" r="6.25" fill="#023047" stroke="white" stroke-width="0.5"/>
<path d="M15.16 9L17.744 6.272C17.9467 6.05867 18.104 5.856 18.216 5.664C18.328 5.46667 18.384 5.256 18.384 5.032C18.384 4.88267 18.3467 4.74133 18.272 4.608C18.2027 4.47467 18.096 4.36533 17.952 4.28C17.8133 4.19467 17.64 4.152 17.432 4.152C17.112 4.152 16.8587 4.264 16.672 4.488C16.4907 4.70667 16.4 5.00533 16.4 5.384H15.464C15.464 4.984 15.5387 4.62933 15.688 4.32C15.8427 4.00533 16.0667 3.75733 16.36 3.576C16.6587 3.39467 17.0213 3.304 17.448 3.304C17.7733 3.304 18.056 3.35733 18.296 3.464C18.536 3.56533 18.7333 3.70133 18.888 3.872C19.048 4.03733 19.1653 4.21867 19.24 4.416C19.32 4.608 19.36 4.79733 19.36 4.984C19.36 5.27733 19.288 5.56 19.144 5.832C19.0053 6.09867 18.8213 6.34133 18.592 6.56L17.008 8.12H19.432V9H15.16Z" fill="white"/>
</svg>
