<svg width="50" height="50" viewBox="0 0 50 50" fill="none" xmlns="http://www.w3.org/2000/svg">
<path d="M12.6788 49.8226C10.7449 49.801 8.82909 49.4463 7.01562 48.774C5.69134 48.2845 4.4932 47.5052 3.50879 46.4932C2.49398 45.5107 1.71355 44.3123 1.22548 42.9868C0.553795 41.1734 0.199597 39.2578 0.17843 37.3241C0.0299017 34.1095 0 33.1453 0 24.9998C0 16.8542 0.0328428 15.8935 0.176959 12.6763C0.200695 10.7434 0.555329 8.82882 1.22548 7.01562C1.71593 5.69112 2.49525 4.4925 3.50683 3.50683C4.49002 2.49293 5.68872 1.71323 7.01415 1.22548C8.82762 0.553238 10.7434 0.198541 12.6773 0.176959C15.893 0.0299017 16.8587 0 24.9998 0C33.1409 0 34.106 0.0328428 37.3232 0.176959C39.2566 0.200528 41.1717 0.555164 42.9854 1.22548C44.3102 1.71387 45.5086 2.4933 46.4922 3.50634C47.5055 4.49027 48.2853 5.68896 48.774 7.01415C49.4464 8.82759 49.8013 10.7434 49.823 12.6773C49.9701 15.8945 50 16.8577 50 25.0007C50 33.1438 49.9701 34.107 49.823 37.3241C49.7997 39.2578 49.4449 41.1731 48.774 42.9868C48.2666 44.3021 47.4894 45.4965 46.4924 46.4933C45.4954 47.49 44.3008 48.2669 42.9854 48.774C41.1719 49.4464 39.2562 49.8013 37.3222 49.823C34.108 49.9701 33.1418 50 24.9988 50C16.8557 50 15.8925 49.9716 12.6783 49.823" fill="url(#paint0_radial_0_119)"/>
<path d="M12.6788 49.8226C10.7449 49.801 8.82909 49.4463 7.01562 48.774C5.69134 48.2845 4.4932 47.5052 3.50879 46.4932C2.49398 45.5107 1.71355 44.3123 1.22548 42.9868C0.553795 41.1734 0.199597 39.2578 0.17843 37.3241C0.0299017 34.1095 0 33.1453 0 24.9998C0 16.8542 0.0328428 15.8935 0.176959 12.6763C0.200695 10.7434 0.555329 8.82882 1.22548 7.01562C1.71593 5.69112 2.49525 4.4925 3.50683 3.50683C4.49002 2.49293 5.68872 1.71323 7.01415 1.22548C8.82762 0.553238 10.7434 0.198541 12.6773 0.176959C15.893 0.0299017 16.8587 0 24.9998 0C33.1409 0 34.106 0.0328428 37.3232 0.176959C39.2566 0.200528 41.1717 0.555164 42.9854 1.22548C44.3102 1.71387 45.5086 2.4933 46.4922 3.50634C47.5055 4.49027 48.2853 5.68896 48.774 7.01415C49.4464 8.82759 49.8013 10.7434 49.823 12.6773C49.9701 15.8945 50 16.8577 50 25.0007C50 33.1438 49.9701 34.107 49.823 37.3241C49.7997 39.2578 49.4449 41.1731 48.774 42.9868C48.2666 44.3021 47.4894 45.4965 46.4924 46.4933C45.4954 47.49 44.3008 48.2669 42.9854 48.774C41.1719 49.4464 39.2562 49.8013 37.3222 49.823C34.108 49.9701 33.1418 50 24.9988 50C16.8557 50 15.8925 49.9716 12.6783 49.823" fill="url(#paint1_radial_0_119)"/>
<path d="M18.8611 25.1063C18.8612 23.8817 19.2244 22.6846 19.9049 21.6665C20.5853 20.6483 21.5524 19.8548 22.6838 19.3863C23.8152 18.9177 25.0602 18.7953 26.2613 19.0343C27.4623 19.2733 28.5655 19.8632 29.4313 20.7292C30.2971 21.5952 30.8867 22.6986 31.1255 23.8997C31.3642 25.1008 31.2414 26.3457 30.7726 27.477C30.3038 28.6083 29.5101 29.5752 28.4918 30.2554C27.4734 30.9356 26.2763 31.2986 25.0517 31.2984C23.4097 31.2981 21.835 30.6456 20.674 29.4844C19.5131 28.3232 18.8609 26.7483 18.8611 25.1063ZM15.5136 25.1063C15.5136 26.9928 16.073 28.8369 17.121 30.4054C18.1691 31.974 19.6587 33.1965 21.4016 33.9184C23.1445 34.6403 25.0623 34.8292 26.9125 34.4612C28.7627 34.0931 30.4622 33.1847 31.7962 31.8508C33.1301 30.5169 34.0385 28.8173 34.4066 26.9671C34.7746 25.1169 34.5857 23.1991 33.8638 21.4562C33.1419 19.7133 31.9193 18.2237 30.3508 17.1756C28.7823 16.1276 26.9382 15.5682 25.0517 15.5682C23.7991 15.5681 22.5588 15.8148 21.4015 16.2941C20.2443 16.7734 19.1928 17.476 18.3071 18.3617C17.4214 19.2474 16.7188 20.2989 16.2395 21.4561C15.7602 22.6134 15.5135 23.8537 15.5136 25.1063ZM32.7384 15.1902C32.7382 15.6311 32.8687 16.0621 33.1135 16.4287C33.3582 16.7953 33.7062 17.0812 34.1134 17.2501C34.5206 17.4189 34.9688 17.4633 35.4012 17.3775C35.8336 17.2917 36.2308 17.0795 36.5427 16.768C36.8545 16.4564 37.067 16.0593 37.1532 15.627C37.2394 15.1947 37.1954 14.7465 37.0269 14.3391C36.8584 13.9318 36.5728 13.5836 36.2064 13.3385C35.84 13.0934 35.4091 12.9625 34.9683 12.9623C34.3774 12.9626 33.8107 13.1974 33.3928 13.6151C32.9749 14.0328 32.7399 14.5993 32.7394 15.1902H32.7384ZM17.5483 40.2263C16.3705 40.2133 15.2036 39.9978 14.0989 39.589C13.2977 39.2802 12.57 38.8071 11.9628 38.2C11.3555 37.593 10.8821 36.8656 10.5729 36.0645C10.164 34.9598 9.94841 33.7929 9.93566 32.615C9.84547 30.6572 9.82782 30.069 9.82782 25.1088C9.82782 20.1485 9.84743 19.5618 9.93566 17.602C9.94995 16.4242 10.1655 15.2576 10.5729 14.1525C10.8817 13.3511 11.355 12.6232 11.9623 12.0159C12.5696 11.4086 13.2974 10.9353 14.0989 10.6265C15.2036 10.2176 16.3704 10.0021 17.5483 9.9893C19.5062 9.89911 20.0944 9.88146 25.0527 9.88146C30.011 9.88146 30.5997 9.90058 32.5595 9.98979C33.7372 10.0041 34.9038 10.2196 36.0089 10.627C36.8104 10.9358 37.5382 11.4092 38.1455 12.0165C38.7528 12.6238 39.2261 13.3516 39.5349 14.153C39.9438 15.2577 40.1593 16.4246 40.1721 17.6025C40.2623 19.5632 40.28 20.1485 40.28 25.1093C40.28 30.07 40.2618 30.6563 40.1721 32.616C40.1584 33.7938 39.9429 34.9605 39.5349 36.0655C39.2257 36.8666 38.7523 37.594 38.145 38.201C37.5378 38.808 36.8101 39.2812 36.0089 39.59C34.9042 39.9989 33.7373 40.2145 32.5595 40.2272C30.6016 40.3174 30.0134 40.3351 25.0527 40.3351C20.0919 40.3351 19.5057 40.3169 17.5483 40.2272V40.2263ZM17.3944 6.64473C15.8532 6.67503 14.3283 6.96674 12.8847 7.50745C11.6506 7.98459 10.5299 8.71434 9.59431 9.6499C8.65874 10.5855 7.929 11.7062 7.45186 12.9402C6.91122 14.3839 6.61951 15.9088 6.58913 17.45C6.49747 19.4304 6.47688 20.0637 6.47688 25.1083C6.47688 30.1528 6.49796 30.7857 6.58913 32.7665C6.6195 34.3078 6.91121 35.8327 7.45186 37.2763C7.92902 38.5103 8.65878 39.631 9.59434 40.5666C10.5299 41.5022 11.6506 42.2319 12.8847 42.7091C14.3283 43.2495 15.8532 43.5413 17.3944 43.5718C19.3758 43.662 20.0081 43.6841 25.0527 43.6841C30.0972 43.6841 30.7301 43.663 32.7109 43.5718C34.2522 43.5414 35.7771 43.2497 37.2207 42.7091C38.4547 42.2319 39.5754 41.5022 40.511 40.5666C41.4466 39.631 42.1763 38.5103 42.6535 37.2763C43.1948 35.8329 43.4866 34.3078 43.5162 32.7665C43.6064 30.7847 43.627 30.1528 43.627 25.1083C43.627 20.0637 43.6059 19.4309 43.5162 17.45C43.4859 15.9088 43.1942 14.3838 42.6535 12.9402C42.1763 11.7064 41.4468 10.5859 40.5115 9.65033C39.5762 8.7148 38.4559 7.98492 37.2222 7.50745C35.7787 6.96639 34.2537 6.67467 32.7124 6.64473C30.7315 6.55404 30.0987 6.53247 25.0551 6.53247C20.0115 6.53247 19.3772 6.55355 17.3954 6.64473" fill="white"/>
<defs>
<radialGradient id="paint0_radial_0_119" cx="0" cy="0" r="1" gradientUnits="userSpaceOnUse" gradientTransform="translate(3.23575 48.9044) scale(63.4808)">
<stop offset="0.09" stop-color="#FA8F21"/>
<stop offset="0.78" stop-color="#D82D7E"/>
</radialGradient>
<radialGradient id="paint1_radial_0_119" cx="0" cy="0" r="1" gradientUnits="userSpaceOnUse" gradientTransform="translate(34.633 47.2986) scale(55.8637)">
<stop offset="0.64" stop-color="#8C3AAA" stop-opacity="0"/>
<stop offset="1" stop-color="#8C3AAA"/>
</radialGradient>
</defs>
</svg>
