<svg width="130" height="28" viewBox="0 0 130 28" fill="none" xmlns="http://www.w3.org/2000/svg">
<path d="M20.6866 17.33C20.6866 17.403 20.6501 17.9138 20.5771 18.8624H5.72803C5.99558 20.0785 6.62798 21.0393 7.62521 21.7446C8.62245 22.45 9.86291 22.8027 11.3466 22.8027C12.3682 22.8027 13.2681 22.6567 14.0464 22.3649C14.8491 22.0487 15.5909 21.5622 16.272 20.9055L19.3002 24.1891C17.4516 26.3052 14.7518 27.3632 11.2007 27.3632C8.98729 27.3632 7.0293 26.9376 5.3267 26.0863C3.6241 25.2106 2.31067 24.0066 1.3864 22.4743C0.462134 20.942 0 19.2029 0 17.2571C0 15.3356 0.449973 13.6086 1.34992 12.0763C2.27419 10.5196 3.52681 9.31565 5.1078 8.46435C6.71311 7.58873 8.50083 7.15092 10.471 7.15092C12.3925 7.15092 14.1316 7.56441 15.6882 8.39138C17.2449 9.21836 18.461 10.4102 19.3367 11.9668C20.2366 13.4992 20.6866 15.2869 20.6866 17.33ZM10.5075 11.4561C9.21836 11.4561 8.13599 11.8209 7.26037 12.5506C6.38475 13.2803 5.84964 14.2775 5.65506 15.5423H15.3234C15.1288 14.3018 14.5937 13.3168 13.7181 12.5871C12.8425 11.8331 11.7723 11.4561 10.5075 11.4561Z" fill="#023047"/>
<path d="M36.0778 7.15092C37.902 7.15092 39.556 7.57657 41.0397 8.42787C42.5477 9.25484 43.7273 10.4345 44.5786 11.9668C45.4299 13.4749 45.8556 15.2383 45.8556 17.2571C45.8556 19.2759 45.4299 21.0514 44.5786 22.5838C43.7273 24.0918 42.5477 25.2714 41.0397 26.1227C39.556 26.9497 37.902 27.3632 36.0778 27.3632C33.378 27.3632 31.3227 26.5119 29.912 24.8093V27.0713H24.4758V0H30.1674V9.52239C31.6024 7.94141 33.5726 7.15092 36.0778 7.15092ZM35.0927 22.6932C36.5521 22.6932 37.7439 22.2068 38.6682 21.2338C39.6168 20.2366 40.0911 18.911 40.0911 17.2571C40.0911 15.6031 39.6168 14.2897 38.6682 13.3168C37.7439 12.3195 36.5521 11.8209 35.0927 11.8209C33.6334 11.8209 32.4294 12.3195 31.4808 13.3168C30.5565 14.2897 30.0944 15.6031 30.0944 17.2571C30.0944 18.911 30.5565 20.2366 31.4808 21.2338C32.4294 22.2068 33.6334 22.6932 35.0927 22.6932Z" fill="#023047"/>
<path d="M66.3389 27.0713L61.4136 19.9569H61.1217H55.9774V27.0713H50.067V1.53234H61.1217C63.3837 1.53234 65.3417 1.90934 66.9957 2.66335C68.6739 3.41736 69.9631 4.48757 70.863 5.87397C71.7629 7.26037 72.2129 8.90216 72.2129 10.7993C72.2129 12.6965 71.7508 14.3383 70.8265 15.7247C69.9266 17.0868 68.6375 18.1327 66.9592 18.8624L72.6872 27.0713H66.3389ZM66.2295 10.7993C66.2295 9.3643 65.7674 8.26977 64.8431 7.51576C63.9188 6.73743 62.5689 6.34826 60.7933 6.34826H55.9774V15.2504H60.7933C62.5689 15.2504 63.9188 14.8613 64.8431 14.0829C65.7674 13.3046 66.2295 12.2101 66.2295 10.7993Z" fill="#023047"/>
<path d="M84.2333 7.15092C87.2737 7.15092 89.6087 7.8806 91.2383 9.33997C92.8679 10.775 93.6828 12.9519 93.6828 15.8707V27.0713H88.3561V24.6269C87.2859 26.4511 85.2914 27.3632 82.3726 27.3632C80.8646 27.3632 79.5512 27.1078 78.4323 26.597C77.3378 26.0863 76.4987 25.3809 75.9149 24.4809C75.3312 23.581 75.0393 22.5594 75.0393 21.4163C75.0393 19.5921 75.7203 18.157 77.0824 17.1111C78.4688 16.0652 80.5971 15.5423 83.4672 15.5423H87.9912C87.9912 14.3018 87.6142 13.3532 86.8602 12.6965C86.1062 12.0155 84.9752 11.675 83.4672 11.675C82.4213 11.675 81.3876 11.8452 80.366 12.1857C79.3688 12.5019 78.5175 12.9398 77.8121 13.4992L75.769 9.52239C76.8392 8.76839 78.1161 8.18464 79.5998 7.77115C81.1078 7.35766 82.6524 7.15092 84.2333 7.15092ZM83.7955 23.5324C84.7684 23.5324 85.6319 23.3134 86.3859 22.8756C87.1399 22.4135 87.675 21.7446 87.9912 20.869V18.8624H84.0874C81.7524 18.8624 80.5849 19.6285 80.5849 21.1609C80.5849 21.8906 80.8646 22.4743 81.424 22.9121C82.0078 23.3256 82.7983 23.5324 83.7955 23.5324Z" fill="#023047"/>
<path d="M130 7.44279L122.886 27.0713H117.413L112.998 14.8856L108.438 27.0713H102.965L95.8872 7.44279H101.25L105.884 20.7231L110.7 7.44279H115.516L120.186 20.7231L124.965 7.44279H130Z" fill="#023047"/>
</svg>
