<svg width="170" height="15" viewBox="0 0 170 15" fill="none" xmlns="http://www.w3.org/2000/svg">
<path fill-rule="evenodd" clip-rule="evenodd" d="M167.507 0H147.368C146.512 0 145.818 0.708368 145.818 1.58044V13.4196C145.818 14.2924 146.514 15 147.368 15H167.507C168.363 15 169.056 14.2916 169.056 13.4196V1.58044C169.056 0.707589 168.361 0 167.507 0Z" fill="#227FBB"/>
<path fill-rule="evenodd" clip-rule="evenodd" d="M147.915 5.39015L147.467 4.27888L147.023 5.39015H147.915ZM157.771 4.94764C157.681 5.00322 157.575 5.00507 157.447 5.00507H156.653V4.38591H157.458C157.572 4.38591 157.691 4.39112 157.768 4.43619C157.853 4.4768 157.905 4.56323 157.905 4.68263C157.905 4.80446 157.855 4.90249 157.771 4.94764C157.855 4.90249 157.771 4.94764 157.771 4.94764ZM163.435 5.39015L162.983 4.27888L162.533 5.39015H163.435ZM152.876 6.593H152.206L152.203 4.40979L151.256 6.593H150.682L149.731 4.40785V6.593H148.402L148.151 5.97123H146.79L146.536 6.593H145.826L146.997 3.80542H147.968L149.08 6.44468V3.80542H150.146L151.002 5.69646L151.788 3.80542H152.876V6.593H152.876ZM155.547 6.593H153.363V3.80542H155.547V4.38591H154.017V4.88837H155.51V5.45977H154.017V6.01646H155.547V6.593ZM158.625 4.55617C158.625 5.00061 158.334 5.23023 158.165 5.29918C158.308 5.35467 158.43 5.45271 158.488 5.53393C158.58 5.67258 158.596 5.79643 158.596 6.04539V6.593H157.937L157.935 6.24146C157.935 6.07372 157.95 5.8325 157.831 5.69839C157.736 5.60035 157.59 5.57908 157.355 5.57908H156.653V6.593H156V3.80542H157.503C157.837 3.80542 158.083 3.81442 158.295 3.93894C158.501 4.06346 158.625 4.24524 158.625 4.55617C158.625 4.55617 158.625 4.24524 158.625 4.55617ZM159.671 6.593H159.004V3.80542H159.671V6.593ZM167.409 6.593H166.483L165.244 4.50076V6.593H163.913L163.658 5.97123H162.3L162.054 6.593H161.289C160.971 6.593 160.569 6.52136 160.341 6.28468C160.111 6.04799 159.992 5.7274 159.992 5.22048C159.992 4.80706 160.063 4.42913 160.344 4.13048C160.555 3.908 160.886 3.80542 161.337 3.80542H161.969V4.40272H161.35C161.111 4.40272 160.977 4.43888 160.847 4.56786C160.736 4.68523 160.659 4.90712 160.659 5.19929C160.659 5.49794 160.717 5.71327 160.839 5.85394C160.939 5.96425 161.122 5.99771 161.294 5.99771H161.588L162.509 3.80551H163.489L164.595 6.44216V3.80551H165.59L166.739 5.7469V3.80551H167.409V6.593ZM145.819 7.14052H146.935L147.187 6.52136H147.751L148.002 7.14052H150.2V6.66715L150.396 7.14254H151.536L151.733 6.66009V7.14052H157.194L157.191 6.12417H157.297C157.371 6.12677 157.392 6.13375 157.392 6.25828V7.14052H160.217V6.90392C160.445 7.02836 160.799 7.14052 161.265 7.14052H162.453L162.708 6.52136H163.271L163.52 7.14052H165.81V6.55239L166.157 7.14052H167.992V3.25269H166.176V3.71184L165.921 3.25269H164.058V3.71184L163.824 3.25269H161.308C160.886 3.25269 160.516 3.31263 160.217 3.4797V3.25269H158.48V3.4797C158.289 3.30751 158.03 3.25269 157.742 3.25269H151.396L150.97 4.25685L150.533 3.25269H148.534V3.71184L148.315 3.25269H146.61L145.818 5.10117V7.14052H145.819ZM169.068 9.19324H167.877C167.758 9.19324 167.679 9.19778 167.613 9.2436C167.544 9.28875 167.517 9.35576 167.517 9.44421C167.517 9.5494 167.575 9.62095 167.66 9.65189C167.729 9.67636 167.803 9.68351 167.912 9.68351L168.266 9.69317C168.624 9.70217 168.862 9.76481 169.008 9.91758C169.034 9.93885 169.05 9.96273 169.068 9.98661V9.19324ZM169.068 11.0315C168.91 11.2682 168.6 11.3881 168.181 11.3881H166.919V10.7902H168.176C168.301 10.7902 168.388 10.7735 168.441 10.7212C168.486 10.6781 168.518 10.6154 168.518 10.5394C168.518 10.4581 168.486 10.3936 168.438 10.355C168.391 10.3124 168.322 10.2931 168.208 10.2931C167.594 10.2718 166.829 10.3124 166.829 9.43009C166.829 9.02567 167.08 8.59997 167.766 8.59997H169.068V8.04522H167.859C167.494 8.04522 167.228 8.13434 167.041 8.2729V8.04522H165.251C164.965 8.04522 164.629 8.11752 164.47 8.2729V8.04522H161.275V8.2729C161.021 8.08591 160.592 8.04522 160.394 8.04522H158.286V8.2729C158.085 8.07431 157.638 8.04522 157.365 8.04522H155.006L154.467 8.64067L153.961 8.04522H150.438V11.9357H153.895L154.451 11.3309L154.975 11.9357L157.106 11.9377V11.0225H157.315C157.598 11.0269 157.932 11.0153 158.226 10.8857V11.9357H159.983V10.9217H160.068C160.176 10.9217 160.187 10.9262 160.187 11.0364V11.9356H165.527C165.866 11.9356 166.22 11.8471 166.416 11.6866V11.9356H168.11C168.462 11.9356 168.807 11.8852 169.068 11.7562V11.0315ZM166.461 9.91758C166.588 10.0519 166.657 10.2214 166.657 10.5083C166.657 11.1081 166.289 11.3881 165.63 11.3881H164.357V10.7902H165.625C165.749 10.7902 165.837 10.7735 165.892 10.7212C165.937 10.6781 165.969 10.6154 165.969 10.5394C165.969 10.4581 165.934 10.3936 165.889 10.355C165.839 10.3124 165.77 10.2931 165.656 10.2931C165.045 10.2718 164.28 10.3124 164.28 9.43009C164.28 9.02567 164.529 8.59997 165.214 8.59997H166.524V9.19341H165.325C165.207 9.19341 165.129 9.19795 165.064 9.24377C164.992 9.28892 164.965 9.35593 164.965 9.44438C164.965 9.54957 165.026 9.62112 165.108 9.65206C165.177 9.67653 165.251 9.68367 165.363 9.68367L165.715 9.69334C166.069 9.70217 166.313 9.76473 166.461 9.91758C166.461 9.91758 166.313 9.76473 166.461 9.91758ZM160.563 9.74539C160.476 9.79827 160.367 9.80281 160.24 9.80281H159.446V9.17659H160.251C160.367 9.17659 160.484 9.17911 160.563 9.22695C160.648 9.2721 160.698 9.35845 160.698 9.47776C160.698 9.59707 160.648 9.69317 160.563 9.74539C160.648 9.69317 160.563 9.74539 160.563 9.74539ZM160.958 10.0924C161.103 10.1471 161.222 10.2452 161.278 10.3265C161.37 10.4626 161.384 10.5896 161.386 10.8354V11.3881H160.73V11.0393C160.73 10.8715 160.746 10.6232 160.624 10.4935C160.529 10.3936 160.383 10.3698 160.145 10.3698H159.446V11.3881H158.789V8.59989H160.299C160.629 8.59989 160.87 8.61477 161.085 8.73147C161.291 8.85852 161.421 9.03256 161.421 9.35063C161.421 9.79567 161.13 10.0228 160.958 10.0924C161.13 10.0228 160.958 10.0924 160.958 10.0924ZM161.783 8.59989H163.965V9.17651H162.434V9.68342H163.928V10.2523H162.434V10.8071L163.965 10.8096V11.3881H161.783V8.59989ZM157.373 9.88664H156.529V9.17659H157.381C157.617 9.17659 157.781 9.27463 157.781 9.51846C157.781 9.7596 157.625 9.88664 157.373 9.88664ZM155.878 11.1345L154.874 9.9988L155.878 8.89913V11.1345ZM153.286 10.8071H151.679V10.2523H153.114V9.68342H151.679V9.17651H153.318L154.033 9.98905L153.286 10.8071ZM158.483 9.51846C158.483 10.293 157.916 10.4529 157.344 10.4529H156.529V11.3881H155.258L154.453 10.4651L153.617 11.3881H151.028V8.59989H153.657L154.461 9.51383L155.292 8.59989H157.381C157.9 8.59989 158.483 8.74627 158.483 9.51846C158.483 9.51846 158.483 8.74627 158.483 9.51846Z" fill="white"/>
<path d="M138.378 0H117.797C117.001 0 116.356 0.644986 116.356 1.44062V13.5594C116.356 14.355 117.001 15 117.797 15H138.378C139.173 15 139.818 14.355 139.818 13.5594V1.44062C139.818 0.644986 139.173 0 138.378 0Z" fill="url(#paint0_linear_0_7)"/>
<path fill-rule="evenodd" clip-rule="evenodd" d="M122.614 7.35678L122.718 6.94439C123.119 6.82342 123.939 6.76844 124.093 7.20282C124.181 7.45575 123.928 8.50597 123.878 8.81389L123.488 8.81939C123.4 8.70942 123.471 8.91287 123.411 8.64344C123.037 8.97885 122.24 8.92386 122.3 8.24754C122.361 7.57672 122.944 7.6647 123.576 7.56573C123.565 7.13684 123.026 7.25231 122.608 7.35128L122.614 7.35678ZM125.555 7.2908C125.198 7.2908 125.143 7.21382 124.83 7.35128C124.868 7.74168 125.071 7.58772 125.352 7.77467C125.885 8.12658 125.313 9.21529 124.043 8.74791L124.115 8.35202C124.472 8.4235 124.654 8.49498 124.929 8.34102C124.994 7.78567 124.01 8.14857 124.285 7.25781C124.434 6.77394 125.088 6.83992 125.627 6.88941L125.55 7.2908H125.555ZM120.079 6.44952L120.92 6.47702L121.008 7.79666L121.464 6.74095C121.618 6.36155 121.514 6.44402 122.482 6.45502L122.047 8.81389L121.574 8.80839L121.833 7.11485L121.135 8.81939L120.568 8.8029C120.552 8.47298 120.524 7.31279 120.436 7.09285L120.15 8.80839L119.655 8.8029L120.079 6.44952ZM128.101 11.4587L128.332 11.1838C127.87 11.1233 127.788 11.2552 127.579 10.8813L128.64 10.8703C128.706 10.7604 128.816 10.6559 128.871 10.5294C127.661 10.447 127.32 10.7549 127.128 10.227H129.069L129.283 9.8916L126.886 9.88061L126.776 9.60018L129.36 9.58919C129.509 9.50671 129.509 9.41323 129.547 9.24278L127.1 9.23728C126.661 9.24278 126.633 9.34175 126.551 8.94036H129.63L129.729 8.59945L128.827 8.58845L128.783 8.81939L128.266 8.7974L128.591 6.87841L129.08 6.94439C129.08 6.95539 129.091 6.99388 129.091 7.01037C129.091 7.02137 129.096 7.03787 129.096 7.04336L129.124 7.14234C129.261 6.97738 129.349 6.85641 129.668 6.86741L129.503 7.31279C129.41 7.43376 129.135 7.2963 129.019 7.62621L129.558 7.6482C129.619 7.3018 129.685 7.19732 129.784 6.9169L129.789 6.75194L126.419 6.75744L126.408 6.87841C126.589 6.87841 126.584 6.84542 126.688 6.93339L126.639 7.25781C126.298 7.34029 126.309 7.13684 126.276 7.58222C126.325 7.6647 126.265 7.62071 126.369 7.6482L126.584 7.6537C126.93 6.5265 127.964 6.77394 128.2 7.12584C128.327 7.31279 128.453 7.92863 128.14 7.97812L127.089 7.98911C127.139 8.54446 127.777 8.429 128.189 8.29153C128.173 8.52247 128.189 8.70942 127.975 8.7864C127.804 8.84688 127.447 8.83039 127.26 8.7864C126.798 8.68193 126.6 8.45099 126.567 7.95062L126.369 7.94512C126.188 7.86265 126.331 7.94512 126.237 7.71968C126.16 8.18156 125.951 8.47848 126.523 8.4125C126.49 8.68743 126.529 8.7809 126.226 8.81389C125.346 8.91836 125.632 8.33002 125.775 7.54373C126.001 6.29007 125.825 6.44402 126.463 6.45502L129.74 6.46052L129.674 6.11961L126.507 6.10861L126.567 5.83369L129.564 5.81719C129.487 5.34982 129.47 5.46529 128.382 5.46529H126.721C126.836 5.06389 126.776 5.17386 127.854 5.17386H129.311L129.157 4.82746L127.045 4.82196L127.188 4.53603L128.953 4.52504C128.728 4.06316 128.739 4.19512 127.491 4.17313C127.65 3.77724 127.931 3.87621 128.42 3.87621C128.283 3.65627 128.184 3.67276 128.101 3.48581C127.898 3.38134 127.716 3.19439 127.513 3.05143C125.957 1.95172 123.845 1.83625 122.152 2.66103C120.629 3.39784 119.133 5.10238 119.15 7.46125C119.172 10.8319 122.13 13.2897 125.478 12.7179C127.051 12.4484 127.447 11.8106 128.096 11.4532L128.101 11.4587Z" fill="#E41D2C"/>
<path fill-rule="evenodd" clip-rule="evenodd" d="M131.692 6.9282C133.396 6.58179 133.116 7.42306 132.978 8.10488C132.934 8.30833 132.934 8.70972 132.775 8.81969C132.736 8.81969 132.511 8.82519 132.489 8.81419C132.335 8.75371 132.406 8.93516 132.384 8.65473C131.922 8.91866 131.191 8.97915 131.279 8.24234C131.351 7.654 131.944 7.56053 132.549 7.58802C132.527 7.15364 132.131 7.22512 131.582 7.36258L131.697 6.9282H131.692ZM133.374 6.87871L133.83 6.88421C133.836 6.8952 133.841 6.9117 133.841 6.9227L133.913 7.12614C133.995 6.99968 134.149 6.88971 134.391 6.88421L134.325 7.2746L134.1 7.36258C133.649 7.51104 133.677 8.07739 133.556 8.81969H133.044L133.374 6.87871ZM135.799 6.46082H136.266L135.865 8.82519C135.343 8.83069 135.469 8.85818 135.304 8.66023C134.963 9.1661 133.94 8.69872 134.254 7.654C134.485 6.87321 135.266 6.66427 135.65 7.12614L135.804 6.45532L135.799 6.46082ZM128.107 3.49161C128.189 3.67856 128.293 3.66207 128.425 3.88201C127.936 3.88201 127.656 3.77754 127.496 4.17893C128.744 4.20092 128.733 4.06896 128.959 4.53083L127.194 4.54183L127.051 4.82776L129.162 4.83325L129.316 5.17966H127.859C126.787 5.17966 126.842 5.07519 126.726 5.47108H128.387C129.476 5.47108 129.492 5.35561 129.569 5.82299L126.572 5.83949L126.512 6.11441L129.679 6.12541L129.745 6.46632L126.468 6.46082L126.424 6.76874L129.795 6.76324L129.789 6.9282C130.042 6.68626 129.998 6.55979 130.471 6.42233C130.861 6.31236 131.109 6.39484 131.494 6.47732L131.411 6.98318C130.751 6.78523 130.322 6.83472 130.168 7.51654C129.998 8.24784 130.575 8.52277 131.186 8.23135C131.131 8.76471 131.043 8.89667 130.416 8.81419C129.982 8.75921 129.85 8.55026 129.657 8.29183H128.871L128.827 8.59425L129.729 8.60525L129.63 8.94616H126.55C126.633 9.34755 126.66 9.24858 127.1 9.24308L129.547 9.24858C129.503 9.41353 129.509 9.51251 129.36 9.59498L126.776 9.60598L126.886 9.88641L129.283 9.8974L129.069 10.2328H127.128C127.32 10.7552 127.661 10.4528 128.871 10.5352C128.816 10.6617 128.706 10.7662 128.64 10.8761L127.579 10.8871C127.782 11.2555 127.87 11.1291 128.332 11.1896L128.101 11.4645C128.887 12.0418 129.498 12.5257 130.768 12.7456C131.922 12.9436 133.127 12.7236 134.056 12.2673C138.081 10.2823 137.971 4.56383 134.023 2.67233C132.604 1.99601 130.724 1.93553 129.256 2.70532C128.546 3.07372 128.376 3.33765 128.112 3.49711L128.107 3.49161Z" fill="#F8B02B"/>
<path fill-rule="evenodd" clip-rule="evenodd" d="M119.655 8.80858L120.15 8.81407L120.436 7.09853C120.524 7.31847 120.552 8.47866 120.568 8.80858L121.134 8.82507L121.833 7.12053L121.574 8.81407L122.047 8.81957L122.482 6.4607C121.514 6.4497 121.618 6.36723 121.464 6.74663L121.008 7.80234L120.92 6.4827L120.079 6.4552L119.655 8.80858ZM134.974 8.37419C134.562 7.9508 134.914 7.24699 135.299 7.34047C135.678 7.43394 135.607 8.36319 134.974 8.37419ZM135.645 7.12602C135.26 6.66415 134.485 6.87309 134.248 7.65388C133.935 8.69311 134.958 9.16598 135.299 8.66011C135.464 8.85806 135.337 8.82507 135.859 8.82507L136.261 6.4607H135.793L135.64 7.13152L135.645 7.12602ZM131.868 8.37969C131.791 8.01129 132.131 7.86833 132.456 7.93431C132.472 8.30821 132.208 8.51165 131.868 8.37969ZM131.692 6.93358L131.576 7.36796C132.126 7.23599 132.527 7.16451 132.544 7.5934C131.939 7.56591 131.345 7.65938 131.274 8.24772C131.18 8.98453 131.917 8.92404 132.379 8.66011C132.401 8.94054 132.329 8.75909 132.483 8.81957C132.505 8.83057 132.731 8.82507 132.769 8.82507C132.934 8.7206 132.934 8.31371 132.973 8.11026C133.116 7.42294 133.391 6.58717 131.686 6.93358H131.692ZM123.488 7.91781C123.499 8.10476 123.466 8.24772 123.345 8.3412C123.262 8.40168 123.015 8.47316 122.916 8.37969C122.608 8.09926 123.185 7.91231 123.482 7.91781H123.488ZM122.613 7.35696C123.031 7.25799 123.57 7.14252 123.581 7.57141C122.949 7.67038 122.366 7.5824 122.306 8.25322C122.24 8.92954 123.037 8.98453 123.416 8.64912C123.477 8.91855 123.405 8.7151 123.493 8.82507L123.884 8.81957C123.933 8.50616 124.186 7.46143 124.098 7.2085C123.944 6.76862 123.13 6.8236 122.723 6.95007L122.619 7.36246L122.613 7.35696ZM127.172 7.63189C127.243 7.35146 127.364 7.23599 127.689 7.27998C127.804 7.44494 127.804 7.39545 127.826 7.63189H127.172ZM126.589 7.65938L126.567 7.9563C126.6 8.45667 126.803 8.68211 127.26 8.79208C127.447 8.83607 127.804 8.85256 127.975 8.79208C128.189 8.7206 128.173 8.52815 128.189 8.29721C127.777 8.43467 127.139 8.55014 127.089 7.99479L128.14 7.9838C128.453 7.93431 128.326 7.32397 128.2 7.13152C127.964 6.77962 126.93 6.53218 126.583 7.65938H126.589ZM129.789 6.92808C129.69 7.2085 129.624 7.31297 129.564 7.65938V7.9618L129.657 8.29721C129.85 8.55564 129.982 8.76459 130.416 8.81957C131.043 8.90205 131.131 8.77009 131.186 8.23673C130.57 8.52815 129.998 8.25322 130.168 7.52192C130.328 6.8346 130.757 6.79061 131.411 6.98856L131.494 6.4827C131.109 6.40572 130.861 6.32324 130.471 6.42771C129.998 6.55968 130.042 6.69164 129.789 6.93358V6.92808ZM125.627 6.88959C125.088 6.8456 124.433 6.77412 124.285 7.25799C124.01 8.14875 124.989 7.78585 124.928 8.3412C124.648 8.49516 124.472 8.42368 124.115 8.3522L124.043 8.74809C125.313 9.21547 125.88 8.13226 125.352 7.77485C125.071 7.5879 124.868 7.74736 124.829 7.35146C125.143 7.2085 125.192 7.29098 125.555 7.29098L125.632 6.88959H125.627Z" fill="#FEFEFE"/>
<path fill-rule="evenodd" clip-rule="evenodd" d="M126.243 7.72539L126.281 7.59343C126.314 7.14805 126.303 7.35149 126.644 7.26901L126.693 6.9446C126.589 6.85662 126.595 6.88961 126.413 6.88961L126.424 6.76865L126.468 6.46073C125.83 6.44973 126.006 6.29577 125.781 7.54944C125.638 8.33573 125.352 8.92407 126.232 8.8196C126.529 8.78661 126.496 8.69313 126.529 8.41821C125.962 8.48419 126.171 8.18727 126.243 7.72539ZM128.827 8.59966L128.871 8.29724L128.926 7.96733L129.025 7.63742C129.146 7.3075 129.421 7.44497 129.509 7.324L129.674 6.87862C129.349 6.86762 129.261 6.98859 129.129 7.15354L129.102 7.05457C129.102 7.04907 129.096 7.03258 129.096 7.02158C129.096 7.01058 129.085 6.96659 129.085 6.9556L128.596 6.88961L128.272 8.8086L128.788 8.8306L128.832 8.59966H128.827ZM133.044 8.8196H133.556C133.677 8.0773 133.649 7.51095 134.1 7.36249L134.325 7.27451L134.391 6.88412C134.149 6.88961 133.996 6.99959 133.913 7.12605L133.842 6.92261C133.836 6.91161 133.836 6.89511 133.831 6.88412L133.374 6.87862L133.044 8.8196Z" fill="#FEFEFE"/>
<path fill-rule="evenodd" clip-rule="evenodd" d="M134.974 8.37421C135.612 8.36321 135.684 7.43396 135.299 7.34048C134.908 7.24701 134.562 7.95082 134.974 8.37421Z" fill="#F8B02B"/>
<path fill-rule="evenodd" clip-rule="evenodd" d="M123.488 7.91858C123.191 7.91308 122.614 8.10003 122.921 8.38045C123.02 8.46843 123.268 8.39695 123.35 8.34196C123.471 8.25399 123.499 8.10553 123.493 7.91858H123.488ZM128.871 8.29248L129.657 8.29797L129.564 7.96256H128.926L128.871 8.29248Z" fill="#E41D2C"/>
<path fill-rule="evenodd" clip-rule="evenodd" d="M131.868 8.37964C132.214 8.5061 132.472 8.30816 132.456 7.93426C132.126 7.87377 131.791 8.01673 131.868 8.37964ZM128.926 7.96175H129.564V7.65933L129.025 7.63184L128.926 7.96175Z" fill="#F8B02B"/>
<path fill-rule="evenodd" clip-rule="evenodd" d="M127.172 7.63248H127.826C127.81 7.40154 127.804 7.44553 127.689 7.28057C127.364 7.23658 127.243 7.35205 127.172 7.63248Z" fill="#E41D2C"/>
<path fill-rule="evenodd" clip-rule="evenodd" d="M126.243 7.72535C126.336 7.95079 126.193 7.86832 126.375 7.95079L126.572 7.95629L126.594 7.65937L126.38 7.65387C126.27 7.63188 126.331 7.67037 126.287 7.58789L126.248 7.71986L126.243 7.72535Z" fill="#F8B02B"/>
<path d="M89.4662 12.7382L91.1416 3.31421H93.7594L92.1364 12.7382H89.4662Z" fill="#3C58BF"/>
<path d="M89.4662 12.7382L91.6128 3.31421H93.7594L92.1364 12.7382H89.4662Z" fill="#293688"/>
<path d="M101.613 3.41885C101.089 3.20942 100.252 3 99.2044 3C96.5866 3 94.7018 4.30889 94.7018 6.1937C94.7018 7.60731 96.0107 8.34029 97.0578 8.81149C98.1049 9.28269 98.4191 9.59682 98.4191 10.0157C98.4191 10.6439 97.5814 10.9581 96.8484 10.9581C95.8013 10.9581 95.2254 10.801 94.3353 10.4345L93.9688 10.2774L93.6023 12.424C94.2306 12.6858 95.3824 12.9476 96.5866 12.9476C99.3615 12.9476 101.194 11.6387 101.194 9.64918C101.194 8.54971 100.513 7.71202 98.9426 7.03139C98.0002 6.56019 97.4243 6.29841 97.4243 5.82721C97.4243 5.40836 97.8955 4.98952 98.9426 4.98952C99.8327 4.98952 100.461 5.14659 100.932 5.35601L101.194 5.46072L101.613 3.41885Z" fill="#3C58BF"/>
<path d="M101.613 3.41885C101.089 3.20942 100.252 3 99.2044 3C96.5866 3 95.173 4.30889 95.173 6.1937C95.173 7.60731 96.0107 8.34029 97.0578 8.81149C98.1049 9.28269 98.4191 9.59682 98.4191 10.0157C98.4191 10.6439 97.5814 10.9581 96.8484 10.9581C95.8013 10.9581 95.2254 10.801 94.3353 10.4345L93.9688 10.2774L93.6023 12.424C94.2306 12.6858 95.3824 12.9476 96.5866 12.9476C99.3615 12.9476 101.194 11.6387 101.194 9.64918C101.194 8.54971 100.513 7.71202 98.9426 7.03139C98.0002 6.56019 97.4243 6.29841 97.4243 5.82721C97.4243 5.40836 97.8955 4.98952 98.9426 4.98952C99.8327 4.98952 100.461 5.14659 100.932 5.35601L101.194 5.46072L101.613 3.41885Z" fill="#293688"/>
<path d="M106.115 3.31421C105.487 3.31421 105.016 3.36656 104.754 3.99483L100.827 12.7382H103.655L104.178 11.1676H107.529L107.843 12.7382H110.356L108.157 3.31421H106.115ZM104.911 9.5969C105.068 9.1257 105.958 6.82204 105.958 6.82204C105.958 6.82204 106.168 6.24613 106.325 5.87964L106.482 6.76969C106.482 6.76969 107.005 9.1257 107.11 9.64925H104.911V9.5969Z" fill="#3C58BF"/>
<path d="M106.744 3.31421C106.115 3.31421 105.644 3.36656 105.382 3.99483L100.827 12.7382H103.655L104.178 11.1676H107.529L107.843 12.7382H110.356L108.157 3.31421H106.744ZM104.911 9.5969C105.121 9.07334 105.958 6.82204 105.958 6.82204C105.958 6.82204 106.168 6.24613 106.325 5.87964L106.482 6.76969C106.482 6.76969 107.005 9.1257 107.11 9.64925H104.911V9.5969Z" fill="#293688"/>
<path d="M84.6496 9.91117L84.3878 8.54992C83.9166 6.97925 82.3983 5.25151 80.7229 4.41381L83.0789 12.7907H85.9061L90.1469 3.3667H87.3197L84.6496 9.91117Z" fill="#3C58BF"/>
<path d="M84.6496 9.91117L84.3878 8.54992C83.9166 6.97925 82.3983 5.25151 80.7229 4.41381L83.0789 12.7907H85.9061L90.1469 3.3667H87.8433L84.6496 9.91117Z" fill="#293688"/>
<path d="M77.3721 3.31421L77.8433 3.41892C81.194 4.20426 83.4977 6.19378 84.3877 8.54978L83.4453 4.09955C83.2883 3.47128 82.8171 3.31421 82.2412 3.31421H77.3721Z" fill="#FFBC00"/>
<path d="M77.3721 3.31421C80.7228 4.09955 83.4977 6.14142 84.3877 8.49743L83.4977 4.78017C83.3406 4.1519 82.8171 3.78541 82.2412 3.78541L77.3721 3.31421Z" fill="#F7981D"/>
<path d="M77.3721 3.31421C80.7228 4.09955 83.4977 6.14142 84.3877 8.49743L83.7595 6.45555C83.6024 5.82729 83.393 5.19902 82.66 4.93724L77.3721 3.31421Z" fill="#ED7C00"/>
<path d="M87.2673 9.5969L85.4872 7.81681L84.6495 9.80633L84.4401 8.49743C83.9689 6.92676 82.4506 5.19902 80.7752 4.36133L83.1312 12.7382H85.9584L87.2673 9.5969ZM92.1364 12.7382L89.8851 10.4346L89.4662 12.7382H92.1364ZM98.1573 9.49219C98.3667 9.70161 98.4714 9.85868 98.4191 10.0681C98.4191 10.6964 97.5814 11.0105 96.8484 11.0105C95.8013 11.0105 95.2254 10.8534 94.3353 10.487L93.9688 10.3299L93.6023 12.4765C94.2306 12.7382 95.3824 13 96.5866 13C98.262 13 99.6232 12.5288 100.409 11.6911L98.1573 9.49219ZM101.194 12.7382H103.655L104.178 11.1676H107.529L107.843 12.7382H110.356L109.466 8.91628L106.325 5.87964L106.482 6.71734C106.482 6.71734 107.005 9.07335 107.11 9.5969H104.911C105.121 9.07335 105.958 6.82205 105.958 6.82205C105.958 6.82205 106.168 6.24614 106.325 5.87964" fill="#051244"/>
<path d="M65.211 3.94785L67.5806 3.52132V12.7155H65.211V3.94785ZM69.0024 3.94785V12.7155H71.372V3.52132L69.0024 3.94785ZM61.8935 12.7155H64.2632V6.08051H61.8935V12.7155ZM45.6853 6.98097C45.3536 6.98097 44.6427 6.93357 44.6427 6.27008C44.6427 5.5118 45.6853 5.5118 46.0645 5.5118C46.728 5.5118 47.6284 5.70137 48.2445 5.89094L48.9554 6.1279H49.0502V3.99524L48.9554 3.94785C48.1971 3.71089 47.2967 3.42653 45.7327 3.42653C42.9839 3.52132 41.9887 5.13266 41.9887 6.50704C41.9887 7.31271 42.3205 9.16102 45.4957 9.39798C45.7801 9.39798 46.491 9.44537 46.491 10.1089C46.491 10.6776 45.8275 10.9619 44.8323 10.9619C43.7422 10.9619 42.9366 10.6776 41.9887 10.4406V12.6207C42.9366 12.8576 44.074 12.9998 45.3536 12.9998C48.0549 12.9998 49.2871 11.4832 49.2871 9.96669C49.2871 8.26056 47.9602 7.17054 45.6853 6.98097ZM60.4244 5.93833C58.1495 5.98572 57.1543 7.02836 57.1543 9.01884V12.7155H59.5239V9.72973C59.5239 8.54492 59.5239 8.0236 60.9457 7.97621V5.98572C60.9457 5.89094 60.4244 5.93833 60.4244 5.93833ZM53.8368 6.08051C53.7894 6.08051 53.3629 7.26532 52.415 8.40274V3.52132L50.0454 4.04263V12.7155H52.415V10.1563C53.3629 11.2463 53.5525 12.7155 53.5525 12.7155H56.5856C56.3012 11.7676 54.9742 9.30319 54.9742 9.30319C56.1591 7.83403 56.6804 6.08051 56.7278 6.08051H53.8368ZM63.0783 5.36962C63.7418 5.36962 64.2632 4.84831 64.2632 4.18481C64.2632 3.52132 63.7418 3 63.0783 3C62.4149 3 61.8935 3.52132 61.8935 4.18481C61.8935 4.84831 62.4149 5.36962 63.0783 5.36962Z" fill="#B73091"/>
<path d="M66.1583 3.75828L67.58 3.52132V12.7155H65.2104L66.1583 3.75828ZM69.8549 3.80567L69.0018 12.7155H71.3714V3.52132L69.8549 3.80567ZM61.893 12.7155H64.2626V6.08051H63.2673L61.893 12.7155ZM41.9881 6.50704C41.9881 7.31271 42.3199 9.16102 45.4478 9.39798C45.7321 9.39798 46.8695 9.44537 46.8695 10.1089C46.8695 10.6776 45.7321 10.9619 44.7843 10.9619C43.6943 10.9619 42.8886 10.6776 41.9407 10.4406V12.6207C42.8886 12.8576 44.026 12.9998 45.3056 12.9998C48.007 12.9998 49.2392 11.4832 49.2392 9.96669C49.2392 8.26056 47.9122 7.17054 45.6373 6.98097C45.3056 6.98097 44.6421 6.93357 44.6421 6.27008C44.6421 5.5118 45.6847 5.5118 46.0639 5.5118C46.7274 5.5118 47.6278 5.70137 48.2439 5.89094L48.9548 6.1279H49.0496V3.99524L48.9548 3.94785C48.1965 3.71089 47.2961 3.42653 45.7321 3.42653L41.9881 6.50704ZM57.1537 8.92406V12.7155H59.5233V9.72973C59.5233 8.54492 59.5233 8.0236 60.9451 7.97621V5.98572C60.9451 5.93833 60.4238 5.93833 60.4238 5.93833L57.1537 8.92406ZM50.0448 12.7155H52.4145V10.1563C53.3623 11.2463 54.4523 12.7155 54.4523 12.7155H56.5376C56.2533 11.7676 54.9263 9.30319 54.9263 9.30319C56.1111 7.83403 56.6324 6.08051 56.6798 6.08051H55.258C55.2106 6.08051 53.3623 7.26532 52.4145 8.40274V3.71089L50.0448 12.7155ZM63.0778 5.36962C63.7413 5.36962 64.2626 4.84831 64.2626 4.18481C64.2626 3.52132 63.7413 3 63.0778 3" fill="#862165"/>
<path fill-rule="evenodd" clip-rule="evenodd" d="M28.0585 4.76485C27.1761 4.76485 26.4703 5.00014 25.882 5.11779L25.7056 6.47071C25.9997 6.35307 26.8232 6.11778 27.5291 6.05895C28.235 6.05895 28.6467 6.1766 28.5291 6.82365C26.4115 6.82365 24.9997 7.23541 24.7056 8.64716C24.2938 11.0001 26.882 11.0589 27.882 10.0001L27.7644 10.6471H29.6467L30.4702 6.82365C30.7643 5.23543 29.3526 4.70603 28.0585 4.76485ZM28.1761 8.70598C28.0585 9.17656 27.6467 9.35303 27.1761 9.41185C26.7644 9.41185 26.4115 9.17656 26.6467 8.70598C26.882 8.35304 27.4114 8.35304 27.8232 8.35304H28.2938C28.235 8.29422 28.1761 8.52951 28.1761 8.70598Z" fill="#32A6CE"/>
<path fill-rule="evenodd" clip-rule="evenodd" d="M25.7056 6.47077C25.9997 6.35312 26.8232 6.11783 27.5291 6.05901C28.235 6.05901 28.6467 6.17665 28.5291 6.82371C26.4115 6.82371 24.9997 7.23546 24.7056 8.64721C24.2938 11.0001 26.882 11.0589 27.882 10.0001L27.7644 10.6472H29.6467L30.4702 6.82371C30.8232 5.23549 29.3526 4.82373 28.0585 4.82373L25.7056 6.47077ZM28.1761 8.70603C28.0585 9.17662 27.6467 9.35309 27.1761 9.41191C26.7644 9.41191 26.4115 9.17662 26.6467 8.70603C26.882 8.3531 27.4114 8.3531 27.8232 8.3531H28.2938C28.235 8.29427 28.1761 8.52957 28.1761 8.70603Z" fill="#1A80AD"/>
<path fill-rule="evenodd" clip-rule="evenodd" d="M32.0585 3L30.5291 10.647H32.4114L33.9996 3H32.0585Z" fill="#32A6CE"/>
<path fill-rule="evenodd" clip-rule="evenodd" d="M33.4114 3L30.5291 10.647H32.4114L33.9996 3H32.0585H33.4114Z" fill="#1A80AD"/>
<path fill-rule="evenodd" clip-rule="evenodd" d="M23.2938 3H19.8233L18.2939 10.647H20.3527L20.8821 8.29405H22.3527C23.7644 8.29405 24.9409 7.47053 25.235 5.99996C25.5291 4.2941 24.2938 3 23.2938 3ZM23.235 5.64703C23.1174 6.17643 22.5879 6.52937 22.0585 6.52937H21.1174L21.5291 4.76468H22.5291C23.0585 4.76468 23.3526 5.11762 23.235 5.64703Z" fill="#32A6CE"/>
<path fill-rule="evenodd" clip-rule="evenodd" d="M23.2939 3H20.941L18.2351 10.647H20.2939L20.8233 8.29405H22.2939C23.7056 8.29405 24.8821 7.47053 25.1762 5.99996C25.5291 4.2941 24.2939 3 23.2939 3ZM23.235 5.64703C23.1174 6.17643 22.588 6.52937 22.0586 6.52937H21.1174L21.5292 4.76468H22.5292C23.0586 4.76468 23.3527 5.11762 23.235 5.64703Z" fill="#1A80AD"/>
<path fill-rule="evenodd" clip-rule="evenodd" d="M9.70576 4.76485C8.82342 4.76485 8.11754 5.00014 7.58814 5.11779L7.41167 6.47071C7.64696 6.35307 8.5293 6.11778 9.23518 6.05895C9.94105 6.05895 10.3528 6.1766 10.2352 6.82365C8.17636 6.82365 6.76462 7.23541 6.4705 8.64716C6.05874 11.0001 8.58812 11.0589 9.58811 10.0001L9.47047 10.6471H11.3528L12.1763 6.82365C12.4704 5.23543 10.9999 4.70603 9.70576 4.76485ZM9.88223 8.70598C9.76458 9.17656 9.35282 9.35303 8.88224 9.41185C8.47048 9.41185 8.11754 9.17656 8.41166 8.70598C8.64695 8.35304 9.17635 8.35304 9.52929 8.35304H9.99987C9.94105 8.29422 9.88223 8.52951 9.88223 8.70598Z" fill="#21789E"/>
<path fill-rule="evenodd" clip-rule="evenodd" d="M7.47051 6.47077C7.7058 6.35312 8.58814 6.11783 9.29401 6.05901C9.99989 6.05901 10.4116 6.17665 10.294 6.82371C8.2352 6.82371 6.82346 7.23546 6.52934 8.64721C6.11758 11.0001 8.64696 11.0589 9.64695 10.0001L9.47048 10.6472H11.3528L12.1763 6.82371C12.5293 5.23549 11.0587 4.82373 9.7646 4.82373L7.47051 6.47077ZM9.88224 8.70603C9.7646 9.17662 9.35284 9.35309 8.88225 9.41191C8.47049 9.41191 8.11756 9.17662 8.41167 8.70603C8.64696 8.3531 9.17637 8.3531 9.5293 8.3531H9.99989C9.94106 8.29427 9.88224 8.52957 9.88224 8.70603Z" fill="#1A5B80"/>
<path fill-rule="evenodd" clip-rule="evenodd" d="M12.941 4.76465H14.8234L15.1175 8.05872L16.9998 4.76465H18.941L14.4704 12.9998H12.3528L13.7057 10.5293L12.941 4.76465Z" fill="#21789E"/>
<path fill-rule="evenodd" clip-rule="evenodd" d="M14.8234 4.88229L15.1175 8.11755L16.9998 4.76465H18.941L14.4704 12.9998H12.3528L13.7057 10.5881" fill="#1A5B80"/>
<path fill-rule="evenodd" clip-rule="evenodd" d="M5.05876 3H1.52939L0 10.647H2.0588L2.5882 8.29405H4.05877C5.47052 8.29405 6.64698 7.47053 6.94109 5.99996C7.29403 4.2941 6.05875 3 5.05876 3ZM4.99994 5.64703C4.88229 6.17643 4.35289 6.52937 3.82348 6.52937H2.88232L3.29408 4.76468H4.29406C4.82347 4.76468 5.11758 5.11762 4.99994 5.64703Z" fill="#21789E"/>
<path fill-rule="evenodd" clip-rule="evenodd" d="M5.05876 3H3.47054L0 10.647H2.0588L2.5882 8.29405H4.05877C5.47052 8.29405 6.64698 7.47053 6.94109 5.99996C7.29403 4.2941 6.05875 3 5.05876 3ZM4.99994 5.64703C4.88229 6.17643 4.35289 6.52937 3.82348 6.52937H2.88232L3.29408 4.76468H4.29406C4.82347 4.76468 5.11758 5.11762 4.99994 5.64703Z" fill="#1A5B80"/>
<path fill-rule="evenodd" clip-rule="evenodd" d="M9.35281 6.82345C7.76459 6.94109 6.70578 7.41167 6.47049 8.58813C6.05873 10.941 8.58811 10.9999 9.5881 9.94105L9.47045 10.6469H11.3528L11.6469 9.23518L9.35281 6.82345ZM9.88221 8.70578C9.76457 9.17636 9.35281 9.35283 8.88223 9.41165C8.47047 9.41165 8.11753 9.17636 8.41164 8.70578C8.64694 8.35284 9.17634 8.35284 9.52928 8.35284H9.99986C9.94104 8.29402 9.88221 8.52931 9.88221 8.70578ZM15.2351 7.9999L15.1174 8.17637L16.3527 9.35283L18.9409 4.76465H16.9998L15.2351 7.9999ZM2.05878 10.6469L2.58819 8.29402L0.176453 10.6469H2.05878Z" fill="#06435E"/>
<path fill-rule="evenodd" clip-rule="evenodd" d="M20.2938 10.647L20.8232 8.17641V8.23523L18.4115 10.647H20.2938ZM27.6467 6.82349C26.0585 6.94113 24.9997 7.41171 24.7644 8.58817C24.3526 10.9411 26.9408 10.9999 27.9408 9.94109L27.7643 10.647H29.6467L29.9408 9.23522L27.6467 6.82349ZM28.1761 8.70582C28.0584 9.1764 27.6467 9.35287 27.1761 9.41169C26.7643 9.41169 26.4114 9.1764 26.6467 8.70582C26.882 8.35288 27.4114 8.35288 27.8231 8.35288H28.2937C28.2349 8.29406 28.1761 8.52935 28.1761 8.70582ZM31.8819 7.17642L30.529 10.647H32.4113L32.9407 8.29406L31.8819 7.17642Z" fill="#2273AA"/>
<path d="M34.4114 4.2351V3.41158H34.1172V3.29393H34.8819V3.41158H34.5878V4.2351H34.4114ZM34.9996 4.2351V3.29393H35.1761L35.4113 3.94098C35.4113 3.9998 35.4702 4.05863 35.4702 4.05863C35.4702 3.9998 35.4702 3.9998 35.529 3.88216L35.7643 3.23511H35.9408V4.17627H35.8231V3.35275L35.529 4.17627H35.3525L35.0584 3.35275V4.17627H34.9996V4.2351Z" fill="#32A6CE"/>
<defs>
<linearGradient id="paint0_linear_0_7" x1="128.087" y1="0.00208944" x2="128.087" y2="15.0032" gradientUnits="userSpaceOnUse">
<stop stop-color="#1D4C80"/>
<stop offset="1" stop-color="#173A63"/>
</linearGradient>
</defs>
</svg>
