<svg width="102" height="16" viewBox="0 0 102 16" fill="none" xmlns="http://www.w3.org/2000/svg">
<path fill-rule="evenodd" clip-rule="evenodd" d="M86.4851 1.61646C86.4851 1.2841 86.6171 0.965348 86.8521 0.730331C87.0871 0.495314 87.4059 0.363283 87.7383 0.363283H100.231C100.395 0.363014 100.558 0.395235 100.711 0.458101C100.863 0.520967 101.001 0.613244 101.118 0.729649C101.234 0.846053 101.327 0.984299 101.39 1.13647C101.453 1.28864 101.485 1.45175 101.485 1.61646V14.1087C101.485 14.2735 101.453 14.4366 101.39 14.5889C101.327 14.7411 101.235 14.8795 101.118 14.996C101.002 15.1125 100.864 15.2049 100.711 15.268C100.559 15.331 100.396 15.3634 100.231 15.3633H87.7383C87.5736 15.3633 87.4106 15.3308 87.2585 15.2678C87.1064 15.2048 86.9683 15.1124 86.8519 14.996C86.7355 14.8796 86.6432 14.7413 86.5803 14.5892C86.5173 14.4371 86.485 14.274 86.4851 14.1094V1.61646ZM92.4223 6.08237H94.4535V7.10237C94.7467 6.51601 95.4967 5.98828 96.6237 5.98828C98.7844 5.98828 99.2964 7.15624 99.2964 9.29919V13.2687H97.1098V9.78737C97.1098 8.56692 96.8167 7.87828 96.0721 7.87828C95.0392 7.87828 94.6096 8.62078 94.6096 9.78737V13.2687H92.4223V6.08237ZM88.6723 13.1753H90.8596V5.98828H88.6723V13.1746V13.1753ZM91.1726 3.64419C91.1767 3.83147 91.1434 4.01768 91.0746 4.19191C91.0057 4.36613 90.9028 4.52485 90.7718 4.65876C90.6408 4.79267 90.4844 4.89906 90.3118 4.9717C90.1391 5.04433 89.9536 5.08175 89.7663 5.08175C89.579 5.08175 89.3936 5.04433 89.2209 4.9717C89.0482 4.89906 88.8918 4.79267 88.7608 4.65876C88.6298 4.52485 88.5269 4.36613 88.4581 4.19191C88.3893 4.01768 88.356 3.83147 88.3601 3.64419C88.3682 3.27659 88.5199 2.92678 88.7827 2.66966C89.0456 2.41254 89.3986 2.26857 89.7663 2.26857C90.134 2.26857 90.4871 2.41254 90.7499 2.66966C91.0128 2.92678 91.1645 3.27659 91.1726 3.64419Z" fill="#023047"/>
<path fill-rule="evenodd" clip-rule="evenodd" d="M60.8931 0.408281C61.6928 0.371463 61.9478 0.363281 63.9851 0.363281C66.0224 0.363281 66.2774 0.372145 67.0765 0.408281C67.8756 0.444418 68.421 0.571918 68.8983 0.75669C69.3981 0.945554 69.8515 1.24078 70.2265 1.6226C70.6083 1.99692 70.9028 2.44965 71.091 2.9501C71.2765 3.42737 71.4033 3.97283 71.4401 4.77055C71.4769 5.57169 71.4851 5.82669 71.4851 7.86328C71.4851 9.90055 71.4762 10.1556 71.4401 10.9553C71.404 11.7531 71.2765 12.2985 71.091 12.7758C70.9028 13.2763 70.6078 13.7298 70.2265 14.1046C69.8515 14.4865 69.3981 14.781 68.8983 14.9692C68.421 15.1546 67.8756 15.2815 67.0778 15.3183C66.2774 15.3551 66.0224 15.3633 63.9851 15.3633C61.9478 15.3633 61.6928 15.3544 60.8931 15.3183C60.0953 15.2821 59.5499 15.1546 59.0726 14.9692C58.5721 14.781 58.1186 14.486 57.7437 14.1046C57.3622 13.7301 57.0669 13.2768 56.8785 12.7765C56.6937 12.2992 56.5669 11.7537 56.5301 10.956C56.4933 10.1549 56.4851 9.89987 56.4851 7.86328C56.4851 5.82601 56.494 5.57101 56.5301 4.77192C56.5662 3.97283 56.6937 3.42737 56.8785 2.9501C57.0672 2.4497 57.3627 1.99645 57.7444 1.62192C58.1188 1.24044 58.5718 0.945175 59.0719 0.75669C59.5492 0.571918 60.0947 0.445099 60.8924 0.408281H60.8931ZM67.0158 1.75828C66.2249 1.72214 65.9876 1.71465 63.9851 1.71465C61.9826 1.71465 61.7453 1.72214 60.9544 1.75828C60.2228 1.79169 59.826 1.91374 59.5615 2.01669C59.2117 2.15305 58.9615 2.31465 58.699 2.57715C58.4501 2.81923 58.2586 3.11393 58.1385 3.43965C58.0356 3.70419 57.9135 4.10101 57.8801 4.8326C57.844 5.62351 57.8365 5.86078 57.8365 7.86328C57.8365 9.86578 57.844 10.1031 57.8801 10.894C57.9135 11.6256 58.0356 12.0224 58.1385 12.2869C58.2585 12.6121 58.4501 12.9074 58.699 13.1494C58.941 13.3983 59.2362 13.5899 59.5615 13.7099C59.826 13.8128 60.2228 13.9349 60.9544 13.9683C61.7453 14.0044 61.9819 14.0119 63.9851 14.0119C65.9883 14.0119 66.2249 14.0044 67.0158 13.9683C67.7474 13.9349 68.1442 13.8128 68.4087 13.7099C68.7585 13.5735 69.0087 13.4119 69.2712 13.1494C69.5201 12.9074 69.7117 12.6121 69.8317 12.2869C69.9347 12.0224 70.0567 11.6256 70.0901 10.894C70.1262 10.1031 70.1337 9.86578 70.1337 7.86328C70.1337 5.86078 70.1262 5.62351 70.0901 4.8326C70.0567 4.10101 69.9347 3.70419 69.8317 3.43965C69.6953 3.08987 69.5337 2.83965 69.2712 2.57715C69.0291 2.32833 68.7345 2.13683 68.4087 2.01669C68.1442 1.91374 67.7474 1.79169 67.0158 1.75828ZM63.0272 10.1753C63.5621 10.398 64.1579 10.4281 64.7126 10.2604C65.2673 10.0926 65.7465 9.73754 66.0685 9.25572C66.3904 8.7739 66.5351 8.19524 66.4779 7.61858C66.4206 7.04192 66.1649 6.50304 65.7544 6.09396C65.4928 5.83247 65.1764 5.63224 64.8281 5.5077C64.4797 5.38316 64.1081 5.33739 63.74 5.3737C63.3719 5.41001 63.0163 5.52749 62.6991 5.71769C62.3818 5.90788 62.1106 6.16606 61.9051 6.47363C61.6996 6.78121 61.5648 7.13052 61.5105 7.49644C61.4561 7.86235 61.4836 8.23575 61.5909 8.58977C61.6982 8.94379 61.8827 9.26961 62.1311 9.54377C62.3794 9.81794 62.6854 10.0336 63.0272 10.1753ZM61.2592 5.13737C61.6172 4.7794 62.0421 4.49544 62.5099 4.30171C62.9776 4.10798 63.4789 4.00826 63.9851 4.00826C64.4914 4.00826 64.9926 4.10798 65.4604 4.30171C65.9281 4.49544 66.353 4.7794 66.711 5.13737C67.069 5.49534 67.3529 5.92032 67.5467 6.38803C67.7404 6.85574 67.8401 7.35703 67.8401 7.86328C67.8401 8.36953 67.7404 8.87082 67.5467 9.33853C67.3529 9.80624 67.069 10.2312 66.711 10.5892C65.9881 11.3121 65.0075 11.7183 63.9851 11.7183C62.9627 11.7183 61.9822 11.3121 61.2592 10.5892C60.5362 9.86623 60.1301 8.8857 60.1301 7.86328C60.1301 6.84087 60.5362 5.86033 61.2592 5.13737ZM68.6951 4.58237C68.7838 4.49869 68.8548 4.39806 68.904 4.28645C68.9531 4.17483 68.9793 4.05449 68.9811 3.93255C68.9829 3.81062 68.9601 3.68956 68.9143 3.57656C68.8685 3.46356 68.8004 3.3609 68.7142 3.27467C68.6279 3.18844 68.5253 3.12039 68.4123 3.07454C68.2993 3.0287 68.1782 3.00599 68.0563 3.00777C67.9344 3.00955 67.814 3.03577 67.7024 3.08489C67.5908 3.13401 67.4902 3.20503 67.4065 3.29374C67.2437 3.46626 67.1546 3.69541 67.1581 3.93255C67.1615 4.16969 67.2573 4.39615 67.425 4.56386C67.5927 4.73156 67.8191 4.8273 68.0563 4.83076C68.2934 4.83422 68.5226 4.74512 68.6951 4.58237Z" fill="#666666"/>
<path d="M41.4851 2.14255C40.8065 2.44323 40.0776 2.64639 39.3113 2.73821C40.102 2.26509 40.6935 1.52046 40.9756 0.643248C40.2327 1.0845 39.4197 1.39509 38.5718 1.56152C38.0016 0.952752 37.2464 0.549248 36.4235 0.413658C35.6005 0.278069 34.7558 0.417979 34.0204 0.811668C33.2851 1.20536 32.7003 1.8308 32.3569 2.59089C32.0135 3.35098 31.9306 4.20319 32.1211 5.01521C30.6159 4.93963 29.1433 4.54839 27.7991 3.86688C26.4548 3.18537 25.2689 2.22883 24.3182 1.05932C23.9932 1.62003 23.8063 2.27014 23.8063 2.9625C23.8059 3.58579 23.9594 4.19953 24.2531 4.74926C24.5468 5.299 24.9717 5.76774 25.49 6.11389C24.8889 6.09476 24.3011 5.93234 23.7754 5.64013V5.68888C23.7753 6.56307 24.0777 7.41035 24.6312 8.08696C25.1848 8.76357 25.9553 9.22784 26.8122 9.40099C26.2545 9.55191 25.6699 9.57414 25.1024 9.466C25.3442 10.2182 25.8151 10.8759 26.4492 11.3472C27.0834 11.8184 27.849 12.0796 28.639 12.0941C27.298 13.1467 25.6419 13.7178 23.9371 13.7153C23.6351 13.7153 23.3334 13.6977 23.0334 13.6624C24.7639 14.7751 26.7783 15.3656 28.8356 15.3633C35.7999 15.3633 39.6071 9.59521 39.6071 4.59264C39.6071 4.43012 39.603 4.26596 39.5957 4.10344C40.3363 3.56789 40.9755 2.90472 41.4835 2.14499L41.4851 2.14255Z" fill="#666666"/>
<path d="M7.50703 8.80031L7.92375 6.08578H5.31891V4.32422C5.31891 3.58172 5.68266 2.8575 6.84937 2.8575H8.03344V0.546563C8.03344 0.546563 6.95906 0.363281 5.93156 0.363281C3.78656 0.363281 2.38453 1.66359 2.38453 4.01719V6.08625H0V8.80078H2.38453V15.3633H5.31891V8.80078L7.50703 8.80031Z" fill="#666666"/>
</svg>
