<svg width="45" height="45" viewBox="0 0 45 45" fill="none" xmlns="http://www.w3.org/2000/svg">
<rect width="45" height="45" fill="#E5E5E5"/>
<path d="M26.9941 17.8114H29.8055L32.6169 21.6124V27.1827H30.7099C30.5985 27.9646 30.2087 28.68 29.6122 29.1975C29.0157 29.7151 28.2524 30 27.4627 30C26.673 30 25.9097 29.7151 25.3132 29.1975C24.7167 28.68 24.3269 27.9646 24.2155 27.1827H19.4643C19.3529 27.9646 18.9631 28.68 18.3666 29.1975C17.7701 29.7151 17.0068 30 16.2171 30C15.4274 30 14.6641 29.7151 14.0676 29.1975C13.4711 28.68 13.0813 27.9646 12.9699 27.1827H12V15.9371C12 15.6886 12.0987 15.4502 12.2745 15.2745C12.4502 15.0987 12.6886 15 12.9371 15H26.057C26.3055 15 26.5439 15.0987 26.7197 15.2745C26.8954 15.4502 26.9941 15.6886 26.9941 15.9371V17.8114ZM26.9941 19.6857V22.4971H30.7427V22.23L28.8609 19.6857H26.9941Z" fill="#666666"/>
</svg>
