<svg width="45" height="45" viewBox="0 0 45 45" fill="none" xmlns="http://www.w3.org/2000/svg">
<rect width="45" height="45" fill="#E5E5E5"/>
<path d="M32 20.8333V29.1667C32 29.3877 31.9052 29.5996 31.7364 29.7559C31.5676 29.9122 31.3387 30 31.1 30H14.9C14.6613 30 14.4324 29.9122 14.2636 29.7559C14.0948 29.5996 14 29.3877 14 29.1667V20.8333H32ZM32 19.1667H14V15.8333C14 15.6123 14.0948 15.4004 14.2636 15.2441C14.4324 15.0878 14.6613 15 14.9 15H31.1C31.3387 15 31.5676 15.0878 31.7364 15.2441C31.9052 15.4004 32 15.6123 32 15.8333V19.1667ZM25.7 25.8333V27.5H29.3V25.8333H25.7Z" fill="#666666"/>
</svg>
